<svg width="242" height="38" viewBox="0 0 242 38" fill="none" xmlns="http://www.w3.org/2000/svg">
<g clip-path="url(#clip0_1060_202)">
<path d="M38.2269 19.0696L23.4339 4.76188L22 3.375L10.8644 14.1453L5.77312 19.0696C5.24229 19.5836 5.24229 20.4164 5.77312 20.9304L15.9467 30.7703L22 36.625L33.1356 25.8547L33.308 25.688L38.2269 20.9304C38.7577 20.4164 38.7577 19.5836 38.2269 19.0696ZM22 24.9155L16.9178 20L22 15.0845L27.0822 20L22 24.9155Z" fill="#3C3E40"/>
<path fill-rule="evenodd" clip-rule="evenodd" d="M22.0001 15.0845C18.6726 11.8658 18.6564 6.65255 21.9638 3.41455L10.8418 14.1673L16.8951 20.022L22.0001 15.0845Z" fill="url(#paint0_linear_1060_202)"/>
<path fill-rule="evenodd" clip-rule="evenodd" d="M27.0959 19.9868L22 24.9155C23.6061 26.468 24.5084 28.5741 24.5084 30.7702C24.5084 32.9664 23.6061 35.0725 22 36.625L33.1492 25.8416L27.0959 19.9868Z" fill="url(#paint1_linear_1060_202)"/>
<path d="M43.415 33L43.45 7.8H47.72V23.2L54.6325 14.1H59.9L52.5675 23.55L60.53 33H54.9475L47.72 23.9V33H43.415ZM62.633 11.23V7.3625H66.8505V11.23H62.633ZM62.633 33V14.1H66.8505V33H62.633ZM81.1751 33.525C79.3317 33.525 77.7859 33.0875 76.5376 32.2125C75.2892 31.3375 74.3501 30.1475 73.7201 28.6425C73.0901 27.1258 72.7751 25.4283 72.7751 23.55C72.7751 21.6483 73.0901 19.945 73.7201 18.44C74.3501 16.935 75.2717 15.7508 76.4851 14.8875C77.7101 14.0125 79.2209 13.575 81.0176 13.575C82.8026 13.575 84.3484 14.0125 85.6551 14.8875C86.9734 15.7508 87.9942 16.935 88.7176 18.44C89.4409 19.9333 89.8026 21.6367 89.8026 23.55C89.8026 25.44 89.4467 27.1375 88.7351 28.6425C88.0234 30.1475 87.0201 31.3375 85.7251 32.2125C84.4301 33.0875 82.9134 33.525 81.1751 33.525ZM72.0576 33V7.8H76.3101V19.735H75.7851V33H72.0576ZM80.5276 29.745C81.6242 29.745 82.5284 29.4708 83.2401 28.9225C83.9517 28.3742 84.4767 27.6333 84.8151 26.7C85.1651 25.755 85.3401 24.705 85.3401 23.55C85.3401 22.4067 85.1651 21.3683 84.8151 20.435C84.4651 19.49 83.9226 18.7433 83.1876 18.195C82.4526 17.635 81.5192 17.355 80.3876 17.355C79.3142 17.355 78.4392 17.6175 77.7626 18.1425C77.0859 18.6558 76.5842 19.3792 76.2576 20.3125C75.9426 21.2342 75.7851 22.3133 75.7851 23.55C75.7851 24.775 75.9426 25.8542 76.2576 26.7875C76.5842 27.7208 77.0917 28.45 77.7801 28.975C78.4801 29.4883 79.3959 29.745 80.5276 29.745ZM93.66 33V14.1H97.3875V18.7025L96.9325 18.1075C97.1658 17.4775 97.475 16.9058 97.86 16.3925C98.2566 15.8675 98.7291 15.4358 99.2775 15.0975C99.7441 14.7825 100.257 14.5375 100.817 14.3625C101.389 14.1758 101.972 14.065 102.567 14.03C103.162 13.9833 103.74 14.0067 104.3 14.1V18.0375C103.74 17.8742 103.092 17.8217 102.357 17.88C101.634 17.9383 100.981 18.1425 100.397 18.4925C99.8141 18.8075 99.3358 19.21 98.9625 19.7C98.6008 20.19 98.3325 20.75 98.1575 21.38C97.9825 21.9983 97.895 22.6692 97.895 23.3925V33H93.66ZM112.48 33.525C111.115 33.525 109.96 33.2683 109.015 32.755C108.07 32.23 107.353 31.5358 106.863 30.6725C106.384 29.8092 106.145 28.8583 106.145 27.82C106.145 26.91 106.297 26.0933 106.6 25.37C106.903 24.635 107.37 24.005 108 23.48C108.63 22.9433 109.447 22.5058 110.45 22.1675C111.208 21.9225 112.095 21.7008 113.11 21.5025C114.137 21.3042 115.245 21.1233 116.435 20.96C117.637 20.785 118.891 20.5983 120.198 20.4L118.693 21.2575C118.704 19.9508 118.413 18.9883 117.818 18.37C117.223 17.7517 116.219 17.4425 114.808 17.4425C113.956 17.4425 113.133 17.6408 112.34 18.0375C111.547 18.4342 110.993 19.1167 110.678 20.085L106.828 18.8775C107.294 17.2792 108.181 15.9958 109.488 15.0275C110.806 14.0592 112.579 13.575 114.808 13.575C116.488 13.575 117.963 13.8492 119.235 14.3975C120.518 14.9458 121.469 15.8442 122.088 17.0925C122.426 17.7575 122.63 18.44 122.7 19.14C122.77 19.8283 122.805 20.5808 122.805 21.3975V33H119.113V28.905L119.725 29.57C118.873 30.935 117.876 31.9383 116.733 32.58C115.601 33.21 114.183 33.525 112.48 33.525ZM113.32 30.165C114.277 30.165 115.093 29.9958 115.77 29.6575C116.447 29.3192 116.983 28.905 117.38 28.415C117.788 27.925 118.063 27.4642 118.203 27.0325C118.424 26.4958 118.547 25.8833 118.57 25.195C118.605 24.495 118.623 23.9292 118.623 23.4975L119.918 23.8825C118.646 24.0808 117.555 24.2558 116.645 24.4075C115.735 24.5592 114.953 24.705 114.3 24.845C113.647 24.9733 113.069 25.1192 112.568 25.2825C112.078 25.4575 111.663 25.6617 111.325 25.895C110.987 26.1283 110.724 26.3967 110.538 26.7C110.363 27.0033 110.275 27.3592 110.275 27.7675C110.275 28.2342 110.392 28.6483 110.625 29.01C110.858 29.36 111.197 29.64 111.64 29.85C112.095 30.06 112.655 30.165 113.32 30.165ZM135.569 33.525C133.62 33.525 131.958 33.0933 130.581 32.23C129.204 31.355 128.149 30.165 127.414 28.66C126.69 27.155 126.323 25.4517 126.311 23.55C126.323 21.6133 126.702 19.8983 127.449 18.405C128.207 16.9 129.28 15.7217 130.669 14.87C132.057 14.0067 133.708 13.575 135.621 13.575C137.768 13.575 139.582 14.1175 141.064 15.2025C142.557 16.2758 143.531 17.7458 143.986 19.6125L139.786 20.75C139.459 19.735 138.917 18.9475 138.159 18.3875C137.4 17.8158 136.537 17.53 135.569 17.53C134.472 17.53 133.568 17.7925 132.856 18.3175C132.144 18.8308 131.619 19.5425 131.281 20.4525C130.943 21.3625 130.774 22.395 130.774 23.55C130.774 25.3467 131.176 26.7992 131.981 27.9075C132.786 29.0158 133.982 29.57 135.569 29.57C136.689 29.57 137.569 29.3133 138.211 28.8C138.864 28.2867 139.354 27.5458 139.681 26.5775L143.986 27.54C143.403 29.465 142.382 30.9467 140.924 31.985C139.465 33.0117 137.68 33.525 135.569 33.525ZM155.328 33.525C153.438 33.525 151.787 33.0992 150.375 32.2475C148.964 31.3958 147.867 30.2233 147.085 28.73C146.315 27.225 145.93 25.4983 145.93 23.55C145.93 21.5667 146.327 19.8283 147.12 18.335C147.914 16.8417 149.016 15.675 150.428 14.835C151.839 13.995 153.473 13.575 155.328 13.575C157.229 13.575 158.886 14.0008 160.298 14.8525C161.709 15.7042 162.806 16.8825 163.588 18.3875C164.369 19.8808 164.76 21.6017 164.76 23.55C164.76 25.51 164.364 27.2425 163.57 28.7475C162.789 30.2408 161.692 31.4133 160.28 32.265C158.869 33.105 157.218 33.525 155.328 33.525ZM155.328 29.57C157.008 29.57 158.256 29.01 159.073 27.89C159.889 26.77 160.298 25.3233 160.298 23.55C160.298 21.7183 159.884 20.26 159.055 19.175C158.227 18.0783 156.984 17.53 155.328 17.53C154.196 17.53 153.263 17.7867 152.528 18.3C151.804 18.8017 151.268 19.5075 150.918 20.4175C150.568 21.3158 150.393 22.36 150.393 23.55C150.393 25.3817 150.807 26.8458 151.635 27.9425C152.475 29.0275 153.706 29.57 155.328 29.57ZM176.194 33.525C174.455 33.525 172.939 33.0875 171.644 32.2125C170.349 31.3375 169.345 30.1475 168.634 28.6425C167.922 27.1375 167.566 25.44 167.566 23.55C167.566 21.6367 167.922 19.9333 168.634 18.44C169.357 16.935 170.378 15.7508 171.696 14.8875C173.014 14.0125 174.566 13.575 176.351 13.575C178.148 13.575 179.653 14.0125 180.866 14.8875C182.091 15.7508 183.019 16.935 183.649 18.44C184.279 19.945 184.594 21.6483 184.594 23.55C184.594 25.4283 184.279 27.1258 183.649 28.6425C183.019 30.1475 182.079 31.3375 180.831 32.2125C179.583 33.0875 178.037 33.525 176.194 33.525ZM176.841 29.745C177.973 29.745 178.883 29.4883 179.571 28.975C180.271 28.45 180.779 27.7208 181.094 26.7875C181.42 25.8542 181.584 24.775 181.584 23.55C181.584 22.3133 181.42 21.2342 181.094 20.3125C180.779 19.3792 180.283 18.6558 179.606 18.1425C178.929 17.6175 178.054 17.355 176.981 17.355C175.849 17.355 174.916 17.635 174.181 18.195C173.446 18.7433 172.904 19.49 172.554 20.435C172.204 21.3683 172.029 22.4067 172.029 23.55C172.029 24.705 172.198 25.755 172.536 26.7C172.886 27.6333 173.417 28.3742 174.129 28.9225C174.84 29.4708 175.744 29.745 176.841 29.745ZM181.584 33V19.735H181.059V7.8H185.311V33H181.584ZM198.81 33.525C196.897 33.525 195.217 33.1108 193.77 32.2825C192.323 31.4542 191.192 30.305 190.375 28.835C189.57 27.365 189.168 25.6733 189.168 23.76C189.168 21.695 189.564 19.9042 190.358 18.3875C191.151 16.8592 192.253 15.675 193.665 14.835C195.077 13.995 196.71 13.575 198.565 13.575C200.525 13.575 202.188 14.0358 203.553 14.9575C204.929 15.8675 205.95 17.1567 206.615 18.825C207.28 20.4933 207.531 22.4592 207.368 24.7225H203.185V23.1825C203.173 21.1292 202.812 19.63 202.1 18.685C201.388 17.74 200.268 17.2675 198.74 17.2675C197.013 17.2675 195.73 17.8042 194.89 18.8775C194.05 19.9392 193.63 21.4967 193.63 23.55C193.63 25.4633 194.05 26.945 194.89 27.995C195.73 29.045 196.955 29.57 198.565 29.57C199.603 29.57 200.496 29.3425 201.243 28.8875C202.001 28.4208 202.584 27.75 202.993 26.875L207.158 28.135C206.434 29.8383 205.314 31.1625 203.798 32.1075C202.293 33.0525 200.63 33.525 198.81 33.525ZM192.3 24.7225V21.5375H205.303V24.7225H192.3ZM211.272 33V14.1H215V18.7025L214.545 18.1075C214.778 17.4775 215.087 16.9058 215.472 16.3925C215.869 15.8675 216.341 15.4358 216.89 15.0975C217.356 14.7825 217.87 14.5375 218.43 14.3625C219.001 14.1758 219.585 14.065 220.18 14.03C220.775 13.9833 221.352 14.0067 221.912 14.1V18.0375C221.352 17.8742 220.705 17.8217 219.97 17.88C219.246 17.9383 218.593 18.1425 218.01 18.4925C217.426 18.8075 216.948 19.21 216.575 19.7C216.213 20.19 215.945 20.75 215.77 21.38C215.595 21.9983 215.507 22.6692 215.507 23.3925V33H211.272ZM231.866 33.525C229.532 33.525 227.636 33 226.178 31.95C224.72 30.9 223.833 29.4242 223.518 27.5225L227.823 26.8575C228.045 27.7908 228.535 28.5258 229.293 29.0625C230.051 29.5992 231.008 29.8675 232.163 29.8675C233.178 29.8675 233.96 29.6692 234.508 29.2725C235.068 28.8642 235.348 28.31 235.348 27.61C235.348 27.1783 235.243 26.8342 235.033 26.5775C234.835 26.3092 234.391 26.0525 233.703 25.8075C233.015 25.5625 231.959 25.2533 230.536 24.88C228.949 24.46 227.689 24.0108 226.756 23.5325C225.822 23.0425 225.151 22.465 224.743 21.8C224.335 21.135 224.131 20.33 224.131 19.385C224.131 18.2067 224.44 17.18 225.058 16.305C225.676 15.43 226.54 14.7592 227.648 14.2925C228.756 13.8142 230.063 13.575 231.568 13.575C233.038 13.575 234.339 13.8025 235.471 14.2575C236.614 14.7125 237.536 15.36 238.236 16.2C238.936 17.04 239.367 18.0258 239.531 19.1575L235.226 19.9275C235.121 19.1225 234.753 18.4867 234.123 18.02C233.505 17.5533 232.676 17.2908 231.638 17.2325C230.646 17.1742 229.847 17.3258 229.241 17.6875C228.634 18.0375 228.331 18.5333 228.331 19.175C228.331 19.5367 228.453 19.8458 228.698 20.1025C228.943 20.3592 229.433 20.6158 230.168 20.8725C230.915 21.1292 232.023 21.4442 233.493 21.8175C234.998 22.2025 236.2 22.6458 237.098 23.1475C238.008 23.6375 238.661 24.2267 239.058 24.915C239.466 25.6033 239.671 26.4375 239.671 27.4175C239.671 29.3192 238.976 30.8125 237.588 31.8975C236.211 32.9825 234.304 33.525 231.866 33.525Z" fill="#312D2D"/>
</g>
<defs>
<linearGradient id="paint0_linear_1060_202" x1="21.0925" y1="10.1119" x2="12.6147" y2="13.8135" gradientUnits="userSpaceOnUse">
<stop offset="0.18" stop-color="#5F6061"/>
<stop offset="1" stop-color="#7B7D81"/>
</linearGradient>
<linearGradient id="paint1_linear_1060_202" x1="22.9711" y1="29.831" x2="31.4337" y2="26.1557" gradientUnits="userSpaceOnUse">
<stop offset="0.18" stop-color="#7C7E83"/>
<stop offset="1" stop-color="#707377"/>
</linearGradient>
<clipPath id="clip0_1060_202">
<rect width="242" height="38" fill="white"/>
</clipPath>
</defs>
</svg>
