<svg width="241" height="38" viewBox="0 0 241 38" fill="none" xmlns="http://www.w3.org/2000/svg">
<g clip-path="url(#clip0_1060_202)">
<path d="M33.2269 18.0696L18.4339 3.76188L17 2.375L5.86444 13.1453L0.773121 18.0696C0.242293 18.5836 0.242293 19.4164 0.773121 19.9304L10.9467 29.7703L17 35.625L28.1356 24.8547L28.308 24.688L33.2269 19.9304C33.7577 19.4164 33.7577 18.5836 33.2269 18.0696ZM17 23.9155L11.9178 19L17 14.0845L22.0822 19L17 23.9155Z" fill="#818387"/>
<path fill-rule="evenodd" clip-rule="evenodd" d="M17.0001 14.0845C13.6726 10.8658 13.6564 5.65255 16.9638 2.41455L5.84183 13.1673L11.8951 19.022L17.0001 14.0845Z" fill="url(#paint0_linear_1060_202)"/>
<path fill-rule="evenodd" clip-rule="evenodd" d="M22.0959 18.9868L17 23.9155C18.6061 25.468 19.5084 27.5741 19.5084 29.7702C19.5084 31.9664 18.6061 34.0725 17 35.625L28.1492 24.8416L22.0959 18.9868Z" fill="url(#paint1_linear_1060_202)"/>
<path d="M38.2662 32L38.3012 6.8H42.5712V22.2L49.4837 13.1H54.7512L47.4187 22.55L55.3812 32H49.7987L42.5712 22.9V32H38.2662ZM57.4843 10.23V6.3625H61.7018V10.23H57.4843ZM57.4843 32V13.1H61.7018V32H57.4843ZM76.0263 32.525C74.183 32.525 72.6372 32.0875 71.3888 31.2125C70.1405 30.3375 69.2013 29.1475 68.5713 27.6425C67.9413 26.1258 67.6263 24.4283 67.6263 22.55C67.6263 20.6483 67.9413 18.945 68.5713 17.44C69.2013 15.935 70.123 14.7508 71.3363 13.8875C72.5613 13.0125 74.0722 12.575 75.8688 12.575C77.6538 12.575 79.1997 13.0125 80.5063 13.8875C81.8247 14.7508 82.8455 15.935 83.5688 17.44C84.2922 18.9333 84.6538 20.6367 84.6538 22.55C84.6538 24.44 84.298 26.1375 83.5863 27.6425C82.8747 29.1475 81.8713 30.3375 80.5763 31.2125C79.2813 32.0875 77.7647 32.525 76.0263 32.525ZM66.9088 32V6.8H71.1613V18.735H70.6363V32H66.9088ZM75.3788 28.745C76.4755 28.745 77.3797 28.4708 78.0913 27.9225C78.803 27.3742 79.328 26.6333 79.6663 25.7C80.0163 24.755 80.1913 23.705 80.1913 22.55C80.1913 21.4067 80.0163 20.3683 79.6663 19.435C79.3163 18.49 78.7738 17.7433 78.0388 17.195C77.3038 16.635 76.3705 16.355 75.2388 16.355C74.1655 16.355 73.2905 16.6175 72.6138 17.1425C71.9372 17.6558 71.4355 18.3792 71.1088 19.3125C70.7938 20.2342 70.6363 21.3133 70.6363 22.55C70.6363 23.775 70.7938 24.8542 71.1088 25.7875C71.4355 26.7208 71.943 27.45 72.6313 27.975C73.3313 28.4883 74.2472 28.745 75.3788 28.745ZM88.5112 32V13.1H92.2387V17.7025L91.7837 17.1075C92.017 16.4775 92.3262 15.9058 92.7112 15.3925C93.1079 14.8675 93.5804 14.4358 94.1287 14.0975C94.5954 13.7825 95.1087 13.5375 95.6687 13.3625C96.2404 13.1758 96.8237 13.065 97.4187 13.03C98.0137 12.9833 98.5912 13.0067 99.1512 13.1V17.0375C98.5912 16.8742 97.9437 16.8217 97.2087 16.88C96.4854 16.9383 95.832 17.1425 95.2487 17.4925C94.6654 17.8075 94.187 18.21 93.8137 18.7C93.452 19.19 93.1837 19.75 93.0087 20.38C92.8337 20.9983 92.7462 21.6692 92.7462 22.3925V32H88.5112ZM107.331 32.525C105.966 32.525 104.811 32.2683 103.866 31.755C102.921 31.23 102.204 30.5358 101.714 29.6725C101.236 28.8092 100.996 27.8583 100.996 26.82C100.996 25.91 101.148 25.0933 101.451 24.37C101.755 23.635 102.221 23.005 102.851 22.48C103.481 21.9433 104.298 21.5058 105.301 21.1675C106.06 20.9225 106.946 20.7008 107.961 20.5025C108.988 20.3042 110.096 20.1233 111.286 19.96C112.488 19.785 113.742 19.5983 115.049 19.4L113.544 20.2575C113.556 18.9508 113.264 17.9883 112.669 17.37C112.074 16.7517 111.071 16.4425 109.659 16.4425C108.807 16.4425 107.985 16.6408 107.191 17.0375C106.398 17.4342 105.844 18.1167 105.529 19.085L101.679 17.8775C102.146 16.2792 103.032 14.9958 104.339 14.0275C105.657 13.0592 107.431 12.575 109.659 12.575C111.339 12.575 112.815 12.8492 114.086 13.3975C115.37 13.9458 116.321 14.8442 116.939 16.0925C117.277 16.7575 117.481 17.44 117.551 18.14C117.621 18.8283 117.656 19.5808 117.656 20.3975V32H113.964V27.905L114.576 28.57C113.725 29.935 112.727 30.9383 111.584 31.58C110.452 32.21 109.035 32.525 107.331 32.525ZM108.171 29.165C109.128 29.165 109.945 28.9958 110.621 28.6575C111.298 28.3192 111.835 27.905 112.231 27.415C112.64 26.925 112.914 26.4642 113.054 26.0325C113.276 25.4958 113.398 24.8833 113.421 24.195C113.456 23.495 113.474 22.9292 113.474 22.4975L114.769 22.8825C113.497 23.0808 112.406 23.2558 111.496 23.4075C110.586 23.5592 109.805 23.705 109.151 23.845C108.498 23.9733 107.921 24.1192 107.419 24.2825C106.929 24.4575 106.515 24.6617 106.176 24.895C105.838 25.1283 105.576 25.3967 105.389 25.7C105.214 26.0033 105.126 26.3592 105.126 26.7675C105.126 27.2342 105.243 27.6483 105.476 28.01C105.71 28.36 106.048 28.64 106.491 28.85C106.946 29.06 107.506 29.165 108.171 29.165ZM130.42 32.525C128.472 32.525 126.809 32.0933 125.432 31.23C124.056 30.355 123 29.165 122.265 27.66C121.542 26.155 121.174 24.4517 121.162 22.55C121.174 20.6133 121.553 18.8983 122.3 17.405C123.058 15.9 124.132 14.7217 125.52 13.87C126.908 13.0067 128.559 12.575 130.472 12.575C132.619 12.575 134.433 13.1175 135.915 14.2025C137.408 15.2758 138.382 16.7458 138.837 18.6125L134.637 19.75C134.311 18.735 133.768 17.9475 133.01 17.3875C132.252 16.8158 131.388 16.53 130.42 16.53C129.323 16.53 128.419 16.7925 127.707 17.3175C126.996 17.8308 126.471 18.5425 126.132 19.4525C125.794 20.3625 125.625 21.395 125.625 22.55C125.625 24.3467 126.027 25.7992 126.832 26.9075C127.637 28.0158 128.833 28.57 130.42 28.57C131.54 28.57 132.421 28.3133 133.062 27.8C133.716 27.2867 134.206 26.5458 134.532 25.5775L138.837 26.54C138.254 28.465 137.233 29.9467 135.775 30.985C134.317 32.0117 132.532 32.525 130.42 32.525ZM150.179 32.525C148.289 32.525 146.638 32.0992 145.227 31.2475C143.815 30.3958 142.718 29.2233 141.937 27.73C141.167 26.225 140.782 24.4983 140.782 22.55C140.782 20.5667 141.178 18.8283 141.972 17.335C142.765 15.8417 143.867 14.675 145.279 13.835C146.691 12.995 148.324 12.575 150.179 12.575C152.081 12.575 153.737 13.0008 155.149 13.8525C156.561 14.7042 157.657 15.8825 158.439 17.3875C159.221 18.8808 159.612 20.6017 159.612 22.55C159.612 24.51 159.215 26.2425 158.422 27.7475C157.64 29.2408 156.543 30.4133 155.132 31.265C153.72 32.105 152.069 32.525 150.179 32.525ZM150.179 28.57C151.859 28.57 153.107 28.01 153.924 26.89C154.741 25.77 155.149 24.3233 155.149 22.55C155.149 20.7183 154.735 19.26 153.907 18.175C153.078 17.0783 151.836 16.53 150.179 16.53C149.047 16.53 148.114 16.7867 147.379 17.3C146.656 17.8017 146.119 18.5075 145.769 19.4175C145.419 20.3158 145.244 21.36 145.244 22.55C145.244 24.3817 145.658 25.8458 146.487 26.9425C147.327 28.0275 148.557 28.57 150.179 28.57ZM171.045 32.525C169.306 32.525 167.79 32.0875 166.495 31.2125C165.2 30.3375 164.196 29.1475 163.485 27.6425C162.773 26.1375 162.417 24.44 162.417 22.55C162.417 20.6367 162.773 18.9333 163.485 17.44C164.208 15.935 165.229 14.7508 166.547 13.8875C167.866 13.0125 169.417 12.575 171.202 12.575C172.999 12.575 174.504 13.0125 175.717 13.8875C176.942 14.7508 177.87 15.935 178.5 17.44C179.13 18.945 179.445 20.6483 179.445 22.55C179.445 24.4283 179.13 26.1258 178.5 27.6425C177.87 29.1475 176.931 30.3375 175.682 31.2125C174.434 32.0875 172.888 32.525 171.045 32.525ZM171.692 28.745C172.824 28.745 173.734 28.4883 174.422 27.975C175.122 27.45 175.63 26.7208 175.945 25.7875C176.271 24.8542 176.435 23.775 176.435 22.55C176.435 21.3133 176.271 20.2342 175.945 19.3125C175.63 18.3792 175.134 17.6558 174.457 17.1425C173.781 16.6175 172.906 16.355 171.832 16.355C170.701 16.355 169.767 16.635 169.032 17.195C168.297 17.7433 167.755 18.49 167.405 19.435C167.055 20.3683 166.88 21.4067 166.88 22.55C166.88 23.705 167.049 24.755 167.387 25.7C167.737 26.6333 168.268 27.3742 168.98 27.9225C169.691 28.4708 170.596 28.745 171.692 28.745ZM176.435 32V18.735H175.91V6.8H180.162V32H176.435ZM193.661 32.525C191.748 32.525 190.068 32.1108 188.621 31.2825C187.175 30.4542 186.043 29.305 185.226 27.835C184.421 26.365 184.019 24.6733 184.019 22.76C184.019 20.695 184.415 18.9042 185.209 17.3875C186.002 15.8592 187.105 14.675 188.516 13.835C189.928 12.995 191.561 12.575 193.416 12.575C195.376 12.575 197.039 13.0358 198.404 13.9575C199.78 14.8675 200.801 16.1567 201.466 17.825C202.131 19.4933 202.382 21.4592 202.219 23.7225H198.036V22.1825C198.025 20.1292 197.663 18.63 196.951 17.685C196.24 16.74 195.12 16.2675 193.591 16.2675C191.865 16.2675 190.581 16.8042 189.741 17.8775C188.901 18.9392 188.481 20.4967 188.481 22.55C188.481 24.4633 188.901 25.945 189.741 26.995C190.581 28.045 191.806 28.57 193.416 28.57C194.455 28.57 195.347 28.3425 196.094 27.8875C196.852 27.4208 197.435 26.75 197.844 25.875L202.009 27.135C201.285 28.8383 200.165 30.1625 198.649 31.1075C197.144 32.0525 195.481 32.525 193.661 32.525ZM187.151 23.7225V20.5375H200.154V23.7225H187.151ZM206.124 32V13.1H209.851V17.7025L209.396 17.1075C209.629 16.4775 209.939 15.9058 210.324 15.3925C210.72 14.8675 211.193 14.4358 211.741 14.0975C212.208 13.7825 212.721 13.5375 213.281 13.3625C213.853 13.1758 214.436 13.065 215.031 13.03C215.626 12.9833 216.204 13.0067 216.764 13.1V17.0375C216.204 16.8742 215.556 16.8217 214.821 16.88C214.098 16.9383 213.444 17.1425 212.861 17.4925C212.278 17.8075 211.799 18.21 211.426 18.7C211.064 19.19 210.796 19.75 210.621 20.38C210.446 20.9983 210.359 21.6692 210.359 22.3925V32H206.124ZM226.717 32.525C224.384 32.525 222.488 32 221.029 30.95C219.571 29.9 218.684 28.4242 218.369 26.5225L222.674 25.8575C222.896 26.7908 223.386 27.5258 224.144 28.0625C224.903 28.5992 225.859 28.8675 227.014 28.8675C228.029 28.8675 228.811 28.6692 229.359 28.2725C229.919 27.8642 230.199 27.31 230.199 26.61C230.199 26.1783 230.094 25.8342 229.884 25.5775C229.686 25.3092 229.243 25.0525 228.554 24.8075C227.866 24.5625 226.81 24.2533 225.387 23.88C223.8 23.46 222.54 23.0108 221.607 22.5325C220.674 22.0425 220.003 21.465 219.594 20.8C219.186 20.135 218.982 19.33 218.982 18.385C218.982 17.2067 219.291 16.18 219.909 15.305C220.528 14.43 221.391 13.7592 222.499 13.2925C223.608 12.8142 224.914 12.575 226.419 12.575C227.889 12.575 229.19 12.8025 230.322 13.2575C231.465 13.7125 232.387 14.36 233.087 15.2C233.787 16.04 234.219 17.0258 234.382 18.1575L230.077 18.9275C229.972 18.1225 229.604 17.4867 228.974 17.02C228.356 16.5533 227.528 16.2908 226.489 16.2325C225.498 16.1742 224.699 16.3258 224.092 16.6875C223.485 17.0375 223.182 17.5333 223.182 18.175C223.182 18.5367 223.304 18.8458 223.549 19.1025C223.794 19.3592 224.284 19.6158 225.019 19.8725C225.766 20.1292 226.874 20.4442 228.344 20.8175C229.849 21.2025 231.051 21.6458 231.949 22.1475C232.859 22.6375 233.513 23.2267 233.909 23.915C234.318 24.6033 234.522 25.4375 234.522 26.4175C234.522 28.3192 233.828 29.8125 232.439 30.8975C231.063 31.9825 229.155 32.525 226.717 32.525Z" fill="#C8C8C8"/>
</g>
<defs>
<linearGradient id="paint0_linear_1060_202" x1="16.0925" y1="9.11195" x2="7.61469" y2="12.8135" gradientUnits="userSpaceOnUse">
<stop offset="0.18" stop-color="#575B61"/>
<stop offset="1" stop-color="#696D72"/>
</linearGradient>
<linearGradient id="paint1_linear_1060_202" x1="17.9711" y1="28.831" x2="26.4337" y2="25.1557" gradientUnits="userSpaceOnUse">
<stop offset="0.18" stop-color="#505255"/>
<stop offset="1" stop-color="#5B5C5F"/>
</linearGradient>
<clipPath id="clip0_1060_202">
<rect width="241" height="38" fill="white"/>
</clipPath>
</defs>
</svg>
